<svg width="2293" height="2293" viewBox="0 0 2293 2293" fill="none" xmlns="http://www.w3.org/2000/svg">
<rect width="2293" height="2293" rx="64" fill="white"/>
<path d="M774.705 1498H494.875V770.727H771.864C846.674 770.727 911.305 785.287 965.756 814.406C1020.44 843.289 1062.58 884.955 1092.18 939.406C1122.01 993.62 1136.92 1058.61 1136.92 1134.36C1136.92 1210.12 1122.12 1275.23 1092.53 1329.68C1062.94 1383.89 1021.04 1425.56 966.821 1454.68C912.607 1483.56 848.568 1498 774.705 1498ZM692.318 1330.39H767.602C803.587 1330.39 834.245 1324.59 859.577 1312.99C885.145 1301.39 904.558 1281.38 917.815 1252.97C931.31 1224.56 938.057 1185.03 938.057 1134.36C938.057 1083.7 931.191 1044.16 917.46 1015.76C903.966 987.347 884.08 967.342 857.801 955.741C831.759 944.141 799.799 938.341 761.92 938.341H692.318V1330.39Z" fill="black"/>
<path d="M1517.3 1498H1797.12V770.727H1520.14C1445.33 770.727 1380.7 785.287 1326.24 814.406C1271.56 843.289 1229.42 884.955 1199.82 939.406C1169.99 993.62 1155.08 1058.61 1155.08 1134.36C1155.08 1210.12 1169.88 1275.23 1199.47 1329.68C1229.06 1383.89 1270.96 1425.56 1325.18 1454.68C1379.39 1483.56 1443.43 1498 1517.3 1498ZM1599.68 1330.39H1524.4C1488.41 1330.39 1457.75 1324.59 1432.42 1312.99C1406.86 1301.39 1387.44 1281.38 1374.18 1252.97C1360.69 1224.56 1353.94 1185.03 1353.94 1134.36C1353.94 1083.7 1360.81 1044.16 1374.54 1015.76C1388.03 987.347 1407.92 967.342 1434.2 955.741C1460.24 944.141 1492.2 938.341 1530.08 938.341H1599.68V1330.39Z" fill="black"/>
</svg>
