<svg width="3000" height="2305" viewBox="0 0 3000 2305" fill="none" xmlns="http://www.w3.org/2000/svg">
<rect x="354" width="2293" height="2293" rx="64" fill="black"/>
<g filter="url(#filter0_f_1_30)">
<ellipse cx="1531.39" cy="972.316" rx="960.393" ry="135.316" fill="#A7D5FF"/>
<ellipse cx="1531.39" cy="1184.96" rx="960.393" ry="135.316" fill="#0C89FD"/>
<ellipse cx="1531.39" cy="1418.68" rx="960.393" ry="135.316" fill="#045097"/>
</g>
<path d="M1128.7 1498H848.875V770.727H1125.86C1200.67 770.727 1265.3 785.287 1319.76 814.406C1374.44 843.289 1416.58 884.955 1446.18 939.406C1476.01 993.62 1490.92 1058.61 1490.92 1134.36C1490.92 1210.12 1476.12 1275.23 1446.53 1329.68C1416.94 1383.89 1375.04 1425.56 1320.82 1454.68C1266.61 1483.56 1202.57 1498 1128.7 1498ZM1046.32 1330.39H1121.6C1157.59 1330.39 1188.25 1324.59 1213.58 1312.99C1239.14 1301.39 1258.56 1281.38 1271.82 1252.97C1285.31 1224.56 1292.06 1185.03 1292.06 1134.36C1292.06 1083.7 1285.19 1044.16 1271.46 1015.76C1257.97 987.347 1238.08 967.342 1211.8 955.741C1185.76 944.141 1153.8 938.341 1115.92 938.341H1046.32V1330.39Z" fill="white"/>
<path d="M1871.3 1498H2151.12V770.727H1874.14C1799.33 770.727 1734.7 785.287 1680.24 814.406C1625.56 843.289 1583.42 884.955 1553.82 939.406C1523.99 993.62 1509.08 1058.61 1509.08 1134.36C1509.08 1210.12 1523.88 1275.23 1553.47 1329.68C1583.06 1383.89 1624.96 1425.56 1679.18 1454.68C1733.39 1483.56 1797.43 1498 1871.3 1498ZM1953.68 1330.39H1878.4C1842.41 1330.39 1811.75 1324.59 1786.42 1312.99C1760.86 1301.39 1741.44 1281.38 1728.18 1252.97C1714.69 1224.56 1707.94 1185.03 1707.94 1134.36C1707.94 1083.7 1714.81 1044.16 1728.54 1015.76C1742.03 987.347 1761.92 967.342 1788.2 955.741C1814.24 944.141 1846.2 938.341 1884.08 938.341H1953.68V1330.39Z" fill="white"/>
<defs>
<filter id="filter0_f_1_30" x="-180" y="86" width="3422.79" height="2219" filterUnits="userSpaceOnUse" color-interpolation-filters="sRGB">
<feFlood flood-opacity="0" result="BackgroundImageFix"/>
<feBlend mode="normal" in="SourceGraphic" in2="BackgroundImageFix" result="shape"/>
<feGaussianBlur stdDeviation="375.5" result="effect1_foregroundBlur_1_30"/>
</filter>
</defs>
</svg>
